<?xml version="1.0" encoding="UTF-8"?>
<!DOCTYPE svg PUBLIC "-//W3C//DTD SVG 1.1//EN" "http://www.w3.org/Graphics/SVG/1.1/DTD/svg11.dtd">
<svg xmlns="http://www.w3.org/2000/svg" version="1.1" width="200px" height="200px" style="shape-rendering:geometricPrecision; text-rendering:geometricPrecision; image-rendering:optimizeQuality; fill-rule:evenodd; clip-rule:evenodd" xmlns:xlink="http://www.w3.org/1999/xlink">
<g><path fill="#000000" d="M 110.5,34.5 C 117.266,38.0531 123.932,41.8864 130.5,46C 133.105,47.0213 135.772,47.8546 138.5,48.5C 139.711,50.4219 141.044,52.2552 142.5,54C 151.761,58.935 160.761,64.2684 169.5,70C 172.482,70.498 175.482,70.6646 178.5,70.5C 178.714,72.1439 178.38,73.6439 177.5,75C 179.249,76.2915 181.082,77.4582 183,78.5C 183.483,79.448 183.649,80.448 183.5,81.5C 182.07,81.5792 180.736,81.2458 179.5,80.5C 177.922,81.6405 176.256,82.1405 174.5,82C 171.931,79.5206 169.598,76.854 167.5,74C 157.371,68.7682 147.371,63.2682 137.5,57.5C 135.328,57.6759 132.995,57.8425 130.5,58C 125.801,63.0336 120.801,67.7002 115.5,72C 121.93,73.545 127.93,76.2116 133.5,80C 136.55,82.0491 138.883,84.7157 140.5,88C 150.097,93.2695 159.43,98.9361 168.5,105C 171.465,106.408 174.465,106.908 177.5,106.5C 178.731,107.651 178.731,108.817 177.5,110C 178.729,111.529 180.229,112.696 182,113.5C 182.483,114.448 182.649,115.448 182.5,116.5C 181.178,116.67 180.011,116.337 179,115.5C 177.401,117.036 175.567,117.536 173.5,117C 171.38,114.591 169.38,112.091 167.5,109.5C 157.178,104.115 147.011,98.448 137,92.5C 135.132,93.6719 133.298,93.5053 131.5,92C 125.736,85.6313 119.403,85.2979 112.5,91C 130.444,104.943 148.944,118.11 168,130.5C 168.718,129.549 169.551,129.383 170.5,130C 174.781,134.727 178.448,139.894 181.5,145.5C 180.33,147.255 178.663,148.255 176.5,148.5C 170.031,147.133 163.698,145.3 157.5,143C 156.167,142.333 155.167,141.333 154.5,140C 130.378,128.773 106.378,117.273 82.5,105.5C 82.7768,110.782 80.7768,115.282 76.5,119C 80.0832,122.058 84.0832,123.225 88.5,122.5C 89.7472,124.006 89.7472,125.506 88.5,127C 91.0758,127.782 93.0758,129.282 94.5,131.5C 91.2074,131.535 87.874,132.035 84.5,133C 79.4952,126.504 73.1618,121.67 65.5,118.5C 59.0885,122.737 53.0885,127.57 47.5,133C 50.2648,134.097 51.9314,136.097 52.5,139C 62.1667,144.667 71.8333,150.333 81.5,156C 84.1667,156.333 86.8333,156.667 89.5,157C 90.8333,158.333 90.8333,159.667 89.5,161C 90.7287,162.529 92.2287,163.696 94,164.5C 94.4828,165.448 94.6495,166.448 94.5,167.5C 93.1779,167.67 92.0113,167.337 91,166.5C 89.4006,168.036 87.5672,168.536 85.5,168C 82.8245,163.957 79.4912,160.624 75.5,158C 66.5316,153.181 57.5316,148.348 48.5,143.5C 45.006,144.312 42.3394,142.979 40.5,139.5C 33.3051,135.739 26.3051,131.739 19.5,127.5C 18.4589,121.212 20.7923,119.546 26.5,122.5C 30.2291,117.433 33.5624,112.099 36.5,106.5C 32.6682,103.75 28.6682,101.25 24.5,99C 23.6198,97.6439 23.2865,96.1439 23.5,94.5C 17.5068,94.3278 16.1735,91.8278 19.5,87C 20.8333,86.3333 22.1667,86.3333 23.5,87C 25.1911,88.4054 27.0245,89.5721 29,90.5C 29.0929,87.9925 29.9262,85.8259 31.5,84C 35.3169,82.9766 38.8169,83.4766 42,85.5C 45.1667,84.3333 45.3333,82.8333 42.5,81C 40.0427,79.4379 37.376,78.4379 34.5,78C 33.1196,76.0748 31.6196,74.2415 30,72.5C 29.3131,70.0797 29.8131,67.913 31.5,66C 36.8223,65.239 41.3223,66.739 45,70.5C 49.1384,66.4305 53.8051,63.0971 59,60.5C 58.5375,58.4741 57.7041,56.4741 56.5,54.5C 57.1139,52.052 58.6139,50.3853 61,49.5C 63.464,50.1608 65.964,50.6608 68.5,51C 71.9353,54.558 75.9353,57.3914 80.5,59.5C 82.0589,58.9264 83.5589,58.2598 85,57.5C 86.3876,58.5536 87.8876,58.7203 89.5,58C 97.5,53.3333 105.5,48.6667 113.5,44C 106.877,42.3379 105.877,39.1713 110.5,34.5 Z M 115.5,40.5 C 121.212,42.524 126.545,45.3573 131.5,49C 130.41,51.9701 128.744,52.3035 126.5,50C 122.833,47.8333 119.167,45.6667 115.5,43.5C 114.438,42.5754 114.438,41.5754 115.5,40.5 Z M 114.5,45.5 C 120.311,47.643 125.644,50.643 130.5,54.5C 126.735,53.798 123.068,52.1313 119.5,49.5C 117.922,50.6405 116.256,51.1405 114.5,51C 113.449,49.6152 112.116,48.6152 110.5,48C 112.066,47.3918 113.4,46.5585 114.5,45.5 Z M 93.5,58.5 C 96.8485,56.066 100.349,53.7327 104,51.5C 106.011,54.0099 108.178,56.3432 110.5,58.5C 115.239,54.979 119.572,55.6457 123.5,60.5C 120.85,63.6511 118.016,66.6511 115,69.5C 108.128,65.148 100.962,61.4813 93.5,58.5 Z M 114.5,54.5 C 115.834,53.3479 117.334,52.3479 119,51.5C 122.56,52.6952 125.726,54.5285 128.5,57C 127.737,57.9435 126.737,58.4435 125.5,58.5C 121.87,56.8416 118.203,55.5083 114.5,54.5 Z M 136.5,54.5 C 137.251,53.4265 138.251,53.2599 139.5,54C 143.241,56.7323 147.241,59.0657 151.5,61C 152.451,61.7175 152.617,62.5509 152,63.5C 146.888,60.3621 141.721,57.3621 136.5,54.5 Z M 65.5,54.5 C 70.1063,55.5529 74.2729,57.5529 78,60.5C 78.0442,62.7597 77.2108,64.7597 75.5,66.5C 71.5834,64.2922 67.75,61.9589 64,59.5C 63.8782,57.7184 64.3782,56.0518 65.5,54.5 Z M 83.5,59.5 C 90.1007,62.4681 96.434,65.9681 102.5,70C 97.7374,72.3536 95.0707,76.187 94.5,81.5C 88.228,77.8923 82.228,73.8923 76.5,69.5C 77.3815,65.044 79.7148,61.7107 83.5,59.5 Z M 93.5,60.5 C 100.31,62.5718 106.644,65.7385 112.5,70C 111.335,71.0836 110.002,71.9169 108.5,72.5C 103.374,68.7647 98.0411,65.2647 92.5,62C 93.056,61.6174 93.3893,61.1174 93.5,60.5 Z M 64.5,64.5 C 63.2438,64.5386 62.2438,64.0386 61.5,63C 62.9976,62.4153 63.9976,62.9153 64.5,64.5 Z M 57.5,65.5 C 68.27,70.7188 78.9366,76.2188 89.5,82C 86.5307,86.1557 83.1974,86.489 79.5,83C 71.0009,78.2516 62.6676,73.2516 54.5,68C 55.5707,67.1482 56.5707,66.3149 57.5,65.5 Z M 49.5,68.5 C 52.9396,70.0549 56.2729,71.8882 59.5,74C 56.3884,73.4568 53.3884,72.2901 50.5,70.5C 49.7025,70.0431 49.3691,69.3764 49.5,68.5 Z M 39.5,69.5 C 43.3888,71.6966 47.2221,74.0299 51,76.5C 50.6017,78.6313 49.6017,80.6313 48,82.5C 44.3333,80.1667 40.6667,77.8333 37,75.5C 36.3333,74.5 36.3333,73.5 37,72.5C 38.045,71.6266 38.8783,70.6266 39.5,69.5 Z M 47.5,70.5 C 49.9687,71.5686 52.3021,72.9019 54.5,74.5C 53.635,75.5827 52.635,75.7494 51.5,75C 49.3645,74.1237 48.0312,72.6237 47.5,70.5 Z M 114.5,73.5 C 121.117,74.9748 127.117,77.8081 132.5,82C 123.948,84.5774 115.282,86.2441 106.5,87C 105.672,86.0853 104.672,85.4186 103.5,85C 106.663,83.5202 108.496,81.0202 109,77.5C 110.5,75.5313 112.333,74.198 114.5,73.5 Z M 103.5,74.5 C 104.5,74.5 105.5,74.5 106.5,74.5C 107.097,78.6391 105.597,81.6391 102,83.5C 100.72,83.3865 99.8869,82.7199 99.5,81.5C 100.861,79.1495 102.194,76.8162 103.5,74.5 Z M 55.5,75.5 C 62.2721,77.9241 68.6054,81.2575 74.5,85.5C 71.0433,87.6237 68.7099,90.6237 67.5,94.5C 61.3359,91.2524 55.3359,87.7524 49.5,84C 50.9125,80.7538 52.9125,77.9205 55.5,75.5 Z M 48.5,85.5 C 54.3531,89.172 60.3531,92.672 66.5,96C 64.7585,97.6196 62.9252,99.1196 61,100.5C 54.9145,96.8735 48.7479,93.3735 42.5,90C 44.7472,88.7225 46.7472,87.2225 48.5,85.5 Z M 89.5,85.5 C 92.0728,85.1485 94.4062,85.6485 96.5,87C 93.1061,90.6185 90.7728,90.1185 89.5,85.5 Z M 97.5,86.5 C 101.051,87.1855 101.217,88.1855 98,89.5C 97.5172,88.552 97.3505,87.552 97.5,86.5 Z M 94.5,98.5 C 90.8864,96.6932 87.2198,94.8599 83.5,93C 82.13,91.5587 81.13,89.892 80.5,88C 84.6178,89.0489 88.6178,90.7156 92.5,93C 93.8613,94.5843 94.528,96.4176 94.5,98.5 Z M 103.5,87.5 C 104.922,87.7086 106.255,88.2086 107.5,89C 105.06,90.3034 102.56,91.47 100,92.5C 99.5,92.1667 99,91.8333 98.5,91.5C 100.015,89.9178 101.681,88.5845 103.5,87.5 Z M 41.5,88.5 C 40.4019,89.397 40.4019,90.2303 41.5,91C 47.3312,94.0812 52.9979,97.4145 58.5,101C 56.5,101.5 54.5,102 52.5,102.5C 49.9751,100.285 46.9751,99.1179 43.5,99C 43.273,97.8647 42.9396,96.698 42.5,95.5C 39.8747,94.2361 37.2081,93.0695 34.5,92C 36.5766,90.295 38.91,89.1283 41.5,88.5 Z M 136.5,88.5 C 142.103,90.9693 147.436,93.9693 152.5,97.5C 150.477,98.041 148.477,97.541 146.5,96C 142.492,94.1878 139.159,91.6878 136.5,88.5 Z M 77.5,89.5 C 79.4411,91.0106 79.9411,93.0106 79,95.5C 77.6487,97.019 76.1487,98.3523 74.5,99.5C 73.2801,99.1131 72.6135,98.2798 72.5,97C 73.8121,94.193 75.4787,91.693 77.5,89.5 Z M 25.5,91.5 C 31.3813,93.774 37.0479,96.6073 42.5,100C 41.6867,101.885 40.3533,102.551 38.5,102C 34.9934,99.746 31.3267,97.746 27.5,96C 25.9632,94.8904 25.2965,93.3904 25.5,91.5 Z M 81.5,93.5 C 85.647,96.0752 89.9803,98.4085 94.5,100.5C 95.6309,102.074 95.7975,103.741 95,105.5C 90.5785,103.039 86.0785,100.706 81.5,98.5C 80.5661,96.9052 80.5661,95.2385 81.5,93.5 Z M 78.5,98.5 C 79.525,98.8966 79.6917,99.5632 79,100.5C 78.1627,102.007 76.9961,102.507 75.5,102C 76.7101,100.961 77.7101,99.7942 78.5,98.5 Z M 134.5,127.5 C 116.139,119.82 98.1391,111.32 80.5,102C 81.0253,101.308 81.6919,100.808 82.5,100.5C 99.8946,109.529 117.228,118.529 134.5,127.5 Z M 65.5,101.5 C 74.6453,100.78 75.6453,103.114 68.5,108.5C 65.8333,106.833 63.1667,105.167 60.5,103.5C 62.2914,102.83 63.9581,102.163 65.5,101.5 Z M 97.5,102.5 C 118.127,113.147 138.46,124.313 158.5,136C 157.5,136.667 156.5,136.667 155.5,136C 136.344,126.589 117.344,116.922 98.5,107C 97.6198,105.644 97.2865,104.144 97.5,102.5 Z M 56.5,103.5 C 59.6456,105.575 62.9789,107.408 66.5,109C 67.8213,110.545 67.4879,111.711 65.5,112.5C 60.7076,110.201 56.041,107.701 51.5,105C 53.3817,104.802 55.0484,104.302 56.5,103.5 Z M 47.5,104.5 C 52.6112,107.105 57.6112,109.939 62.5,113C 63.4506,113.718 63.6172,114.551 63,115.5C 58.2488,112.541 53.4155,109.707 48.5,107C 47.7476,106.329 47.4142,105.496 47.5,104.5 Z M 125.5,104.5 C 138.472,112.99 151.472,121.49 164.5,130C 165.451,130.718 165.617,131.551 165,132.5C 162.627,134.85 160.127,135.017 157.5,133C 144.994,124.914 132.661,116.581 120.5,108C 122.584,107.303 124.251,106.136 125.5,104.5 Z M 38.5,106.5 C 41.7414,108.263 45.0747,108.93 48.5,108.5C 52.8333,111 57.1667,113.5 61.5,116C 54.9512,123.051 47.9512,129.551 40.5,135.5C 35.457,132.985 30.7904,129.985 26.5,126.5C 30.9521,120.061 34.9521,113.394 38.5,106.5 Z M 109.5,106.5 C 118.669,108.75 126.669,113.083 133.5,119.5C 125.173,115.672 117.173,111.338 109.5,106.5 Z M 76.5,107.5 C 77.5,107.5 78.5,107.5 79.5,107.5C 80.0974,111.639 78.5974,114.639 75,116.5C 73.7202,116.387 72.8869,115.72 72.5,114.5C 73.8611,112.15 75.1944,109.816 76.5,107.5 Z M 133.5,119.5 C 135.027,119.427 136.027,120.094 136.5,121.5C 134.973,121.573 133.973,120.906 133.5,119.5 Z M 21.5,122.5 C 22.4646,123.721 22.298,125.054 21,126.5C 20.4209,125.072 20.5876,123.738 21.5,122.5 Z M 167.5,132.5 C 168.552,132.351 169.552,132.517 170.5,133C 173.743,136.821 176.743,140.821 179.5,145C 179,145.5 178.5,146 178,146.5C 173.751,141.627 168.584,138.127 162.5,136C 164.346,134.97 166.013,133.804 167.5,132.5 Z M 157.5,137.5 C 158.586,137.62 159.253,138.287 159.5,139.5C 158.696,141.957 157.696,141.957 156.5,139.5C 156.863,138.817 157.196,138.15 157.5,137.5 Z M 174.5,145.5 C 170.737,145.143 167.07,144.31 163.5,143C 161.901,141.934 160.901,140.434 160.5,138.5C 166.379,138.106 171.046,140.439 174.5,145.5 Z M 48.5,139.5 C 54.1025,141.969 59.4358,144.969 64.5,148.5C 64.1667,148.833 63.8333,149.167 63.5,149.5C 60.3272,147.413 56.9939,145.579 53.5,144C 51.3083,142.933 49.6417,141.433 48.5,139.5 Z M 85.5,164.5 C 86.0768,163.227 86.7435,163.227 87.5,164.5C 87.0302,165.463 86.3635,165.463 85.5,164.5 Z"/></g>
</svg>
